<svg xmlns="http://www.w3.org/2000/svg"  viewBox="0 0 48 48" width="96px" height="96px"><path fill="#607d8b" d="M34,37c0,0-2.214-4-8-4s-8,4-8,4v2h16V37z"/><path fill="#ff9800" d="M28.015,30h-4v3c0,0-0.124,2,1.959,2s2.041-2,2.041-2V30z"/><path fill="#ffb74d" d="M26.014,32c-2.758,0-5-2.242-5-5c0-2.758,2.242-5,5-5s5,2.242,5,5C31.014,29.758,28.771,32,26.014,32"/><path fill="#424242" d="M25.795,20c-2.438,0.219-4.781,1.93-4.781,5.574V27l1,1v-3l6.31-2.201L30.014,25v3l1-1v-1.203c0-2.414-0.135-4.205-3-4.797l-0.485-1H25.795z"/><path fill="#2196f3" d="M3.014 29.061L9.279 33.561 9.279 33.561 10.324 34.311 10.324 34.311 15.573 27z"/><path fill="#2196f3" d="M39.448,13.564c-7.419-7.42-19.45-7.42-26.87,0C7.843,18.299,6.148,24.908,7.462,31h4.117c-1.394-5.035-0.13-10.648,3.828-14.605c5.857-5.859,15.355-5.859,21.213,0c4.599,4.598,5.57,11.436,2.947,16.998l3.516,1.918C46.531,28.227,45.332,19.449,39.448,13.564z"/></svg>