<?xml version="1.0" encoding="UTF-8"?>
<svg xmlns="http://www.w3.org/2000/svg" xmlns:xlink="http://www.w3.org/1999/xlink" width="144pt" height="144pt" viewBox="0 0 144 144" version="1.1">
<g id="surface12113083">
<path style=" stroke:none;fill-rule:nonzero;fill:rgb(239, 65, 54);fill-opacity:1;" d="M 72 6 L 85.519531 21.085938 L 105 15 L 109.394531 34.605469 L 129 39 L 123 58.480469 L 138 72 L 123 85.519531 L 129 105 L 109.394531 109.394531 L 105 129 L 85.519531 122.914062 L 72 138 L 58.480469 122.914062 L 39 129 L 34.605469 109.394531 L 15 105 L 21 85.519531 L 6 72 L 21 58.480469 L 15 39 L 34.605469 34.605469 L 39 15 L 58.480469 21.085938 Z M 72 6 "/>
<path style=" stroke:none;fill-rule:nonzero;fill:rgb(100%,100%,100%);fill-opacity:1;" d="M 60 96.902344 L 54.902344 93.902344 L 84 47.097656 L 89.097656 50.097656 Z M 57 42 C 51.597656 42 45 45.304688 45 54 L 45 57 C 45 62.402344 48.304688 69 57 69 C 63.304688 69 69 64.804688 69 57 L 69 54 C 69 46.5 63.902344 42 57 42 Z M 62.402344 57 C 62.402344 60.902344 60.304688 63 57 63 C 54.304688 63 51.597656 61.195312 51.597656 57 L 51.597656 54 C 51.597656 49.804688 54.304688 47.695312 57 47.695312 C 61.195312 47.695312 62.402344 51.597656 62.402344 54 Z M 87 102 C 92.402344 102 99 98.695312 99 90 L 99 87 C 99 81.597656 95.695312 75 87 75 C 80.695312 75 75 79.195312 75 87 L 75 90 C 75 97.5 80.097656 102 87 102 Z M 81.597656 87 C 81.597656 83.097656 83.695312 81 87 81 C 89.695312 81 92.402344 82.804688 92.402344 87 L 92.402344 90 C 92.402344 94.195312 89.695312 96.304688 87 96.304688 C 82.804688 96.304688 81.597656 92.402344 81.597656 90 Z M 81.597656 87 "/>
</g>
</svg>
